<?xml version="1.0" encoding="UTF-8"?>
<svg width="950px" height="400px" viewBox="0 0 950 400" xmlns="http://www.w3.org/2000/svg" xmlns:xlink="http://www.w3.org/1999/xlink" version="1.1">
 <!-- Generated by Pixelmator Pro 1.4.1 -->
 <defs>
  <path id="path" d="M879.75 215.359 C879.75 226.609 877.734 237.086 873.703 246.789 869.672 256.492 864.188 264.883 857.25 271.961 850.312 279.039 842.18 284.617 832.852 288.695 823.523 292.774 813.516 294.813 802.828 294.813 792.234 294.813 782.273 292.774 772.945 288.695 763.617 284.617 755.461 279.039 748.477 271.961 741.492 264.883 735.984 256.492 731.953 246.789 727.922 237.086 725.906 226.609 725.906 215.359 725.906 203.922 727.922 193.328 731.953 183.578 735.984 173.828 741.492 165.414 748.477 158.336 755.461 151.258 763.617 145.703 772.945 141.672 782.273 137.641 792.234 135.625 802.828 135.625 813.516 135.625 823.523 137.523 832.852 141.32 842.18 145.117 850.312 150.508 857.25 157.492 864.188 164.477 869.672 172.867 873.703 182.664 877.734 192.461 879.75 203.359 879.75 215.359 Z M841.078 215.359 C841.078 209.172 840.07 203.57 838.055 198.555 836.039 193.539 833.297 189.227 829.828 185.617 826.359 182.008 822.305 179.242 817.664 177.32 813.023 175.398 808.078 174.438 802.828 174.438 797.578 174.438 792.633 175.398 787.992 177.32 783.351 179.242 779.32 182.008 775.898 185.617 772.476 189.227 769.781 193.539 767.813 198.555 765.844 203.57 764.859 209.172 764.859 215.359 764.859 221.172 765.844 226.563 767.813 231.531 769.781 236.5 772.476 240.813 775.898 244.469 779.32 248.125 783.351 251.008 787.992 253.117 792.633 255.227 797.578 256.281 802.828 256.281 808.078 256.281 813.023 255.297 817.664 253.328 822.305 251.359 826.359 248.594 829.828 245.031 833.297 241.469 836.039 237.156 838.055 232.094 840.07 227.031 841.078 221.453 841.078 215.359 Z M666.281 215.359 C666.281 210.109 665.273 205.024 663.258 200.102 661.242 195.18 658.5 190.82 655.031 187.023 651.562 183.227 647.508 180.18 642.867 177.883 638.226 175.586 633.281 174.438 628.031 174.438 622.781 174.438 617.836 175.328 613.195 177.109 608.555 178.891 604.523 181.516 601.102 184.984 597.68 188.453 594.984 192.742 593.016 197.852 591.047 202.961 590.063 208.797 590.063 215.359 590.063 221.641 591.047 227.289 593.016 232.305 594.984 237.32 597.68 241.609 601.102 245.172 604.523 248.734 608.555 251.477 613.195 253.398 617.836 255.32 622.781 256.281 628.031 256.281 633.281 256.281 638.226 255.133 642.867 252.836 647.508 250.539 651.562 247.492 655.031 243.695 658.5 239.898 661.242 235.539 663.258 230.617 665.273 225.695 666.281 220.609 666.281 215.359 Z M704.953 273.016 C704.953 283.609 702.938 293.547 698.906 302.828 694.875 312.109 689.367 320.219 682.383 327.156 675.398 334.094 667.242 339.578 657.914 343.609 648.586 347.641 638.625 349.656 628.031 349.656 L608.766 349.375 608.766 310.984 627.75 311.266 C633.75 311.266 638.859 310.492 643.078 308.945 647.297 307.398 650.859 305.289 653.766 302.617 656.672 299.945 658.992 296.875 660.727 293.406 662.461 289.938 663.844 286.281 664.875 282.438 663.375 284.875 661.219 286.867 658.406 288.414 655.594 289.961 652.477 291.227 649.055 292.211 645.633 293.195 642.07 293.875 638.367 294.25 634.664 294.625 631.219 294.813 628.031 294.813 617.437 294.813 607.477 292.984 598.148 289.328 588.82 285.672 580.664 280.445 573.68 273.648 566.695 266.852 561.188 258.531 557.156 248.688 553.125 238.844 551.109 227.734 551.109 215.359 551.109 204.016 553.125 193.469 557.156 183.719 561.188 173.969 566.695 165.531 573.68 158.406 580.664 151.281 588.82 145.703 598.148 141.672 607.477 137.641 617.437 135.625 628.031 135.625 632.906 135.625 637.734 136.234 642.516 137.453 647.297 138.672 651.937 140.359 656.438 142.516 660.938 144.672 665.226 147.203 669.305 150.109 673.383 153.016 677.203 156.156 680.766 159.531 L695.672 141.672 704.953 141.672 Z M536.484 100.469 C536.484 104.031 535.805 107.359 534.445 110.453 533.086 113.547 531.234 116.242 528.891 118.539 526.547 120.836 523.805 122.664 520.664 124.023 517.523 125.383 514.172 126.063 510.609 126.063 507.047 126.063 503.695 125.383 500.555 124.023 497.414 122.664 494.695 120.836 492.398 118.539 490.101 116.242 488.273 113.547 486.914 110.453 485.555 107.359 484.875 104.031 484.875 100.469 484.875 97 485.555 93.695 486.914 90.555 488.273 87.414 490.101 84.695 492.398 82.398 494.695 80.102 497.414 78.274 500.555 76.914 503.695 75.555 507.047 74.875 510.609 74.875 514.172 74.875 517.523 75.555 520.664 76.914 523.805 78.274 526.547 80.102 528.891 82.398 531.234 84.695 533.086 87.414 534.445 90.555 535.805 93.695 536.484 97 536.484 100.469 Z M529.875 292 L491.203 292 491.203 141.391 529.875 141.391 Z M463.219 292 L424.969 292 424.969 196.375 C424.969 193.75 424.477 191.266 423.492 188.922 422.508 186.578 421.125 184.516 419.344 182.734 417.562 180.953 415.5 179.57 413.156 178.586 410.812 177.602 408.328 177.109 405.703 177.109 403.078 177.109 400.617 177.602 398.32 178.586 396.023 179.57 394.008 180.953 392.273 182.734 390.539 184.516 389.18 186.578 388.195 188.922 387.211 191.266 386.719 193.75 386.719 196.375 L386.719 292 348.328 292 348.328 196.375 C348.328 193.75 347.836 191.266 346.852 188.922 345.867 186.578 344.484 184.516 342.703 182.734 340.922 180.953 338.859 179.57 336.516 178.586 334.172 177.602 331.688 177.109 329.063 177.109 326.437 177.109 323.977 177.602 321.68 178.586 319.383 179.57 317.367 180.953 315.633 182.734 313.898 184.516 312.539 186.578 311.555 188.922 310.57 191.266 310.078 193.75 310.078 196.375 L310.078 292 271.688 292 271.688 141.391 280.969 141.391 291.375 152.922 C296.719 148.422 302.601 144.93 309.023 142.445 315.445 139.961 322.125 138.719 329.063 138.719 336.094 138.719 342.961 140.031 349.664 142.656 356.367 145.281 362.25 149.828 367.313 156.297 369.656 153.109 372.328 150.391 375.328 148.141 378.328 145.891 381.492 144.063 384.82 142.656 388.148 141.25 391.594 140.242 395.156 139.633 398.719 139.023 402.234 138.719 405.703 138.719 413.672 138.719 421.148 140.219 428.133 143.219 435.117 146.219 441.211 150.32 446.414 155.523 451.617 160.727 455.719 166.844 458.719 173.875 461.719 180.906 463.219 188.406 463.219 196.375 Z M200.391 211.422 L200.391 171.063 C200.391 165.531 199.336 160.305 197.227 155.383 195.117 150.461 192.234 146.172 188.578 142.516 184.922 138.859 180.633 135.977 175.711 133.867 170.789 131.758 165.563 130.703 160.031 130.703 154.5 130.703 149.273 131.758 144.352 133.867 139.43 135.977 135.141 138.859 131.484 142.516 127.828 146.172 124.945 150.461 122.836 155.383 120.726 160.305 119.672 165.531 119.672 171.063 L119.672 211.422 Z M240.75 292 L200.391 292 200.391 251.641 119.672 251.641 119.672 292 79.453 292 79.453 171.063 C79.453 159.906 81.562 149.43 85.781 139.633 90 129.836 95.742 121.281 103.008 113.969 110.273 106.656 118.805 100.891 128.602 96.672 138.398 92.453 148.875 90.344 160.031 90.344 171.188 90.344 181.664 92.453 191.461 96.672 201.258 100.891 209.812 106.656 217.125 113.969 224.438 121.281 230.203 129.836 234.422 139.633 238.641 149.43 240.75 159.906 240.75 171.063 Z"/>
 </defs>
 <use id="amigo" xlink:href="#path" fill="#000000" fill-opacity="1" stroke="none"/>
 <defs>
  <linearGradient id="linear-gradient" gradientUnits="userSpaceOnUse" x1="58" y1="187" x2="892" y2="187">
   <stop offset="0" stop-color="#21a9ff" stop-opacity="1"/>
   <stop offset="1" stop-color="#fa3ebe" stop-opacity="1"/>
  </linearGradient>
 </defs>
 <use id="amigo-1" xlink:href="#path" fill="url(#linear-gradient)" fill-opacity="1" stroke="none"/>
</svg>
