<?xml version="1.0" encoding="UTF-8" standalone="no"?>
<!DOCTYPE svg PUBLIC "-//W3C//DTD SVG 1.1//EN" "http://www.w3.org/Graphics/SVG/1.1/DTD/svg11.dtd">
<svg width="100%" height="100%" viewBox="0 0 950 400" version="1.1" xmlns="http://www.w3.org/2000/svg" xmlns:xlink="http://www.w3.org/1999/xlink" xml:space="preserve" xmlns:serif="http://www.serif.com/" style="fill-rule:evenodd;clip-rule:evenodd;stroke-linejoin:round;stroke-miterlimit:2;">
    <g id="Shadow" transform="matrix(18.0072,0,0,18.2133,-489.549,-1856.61)">
        <g transform="matrix(15.8126,0,0,15.8126,30.9688,117.57)">
            <path d="M0.477,-0.28L0.477,-0.42C0.477,-0.439 0.473,-0.457 0.466,-0.474C0.459,-0.491 0.449,-0.506 0.436,-0.519C0.423,-0.532 0.408,-0.542 0.391,-0.549C0.374,-0.556 0.356,-0.56 0.337,-0.56C0.318,-0.56 0.3,-0.556 0.282,-0.549C0.265,-0.542 0.25,-0.532 0.238,-0.519C0.225,-0.506 0.215,-0.491 0.208,-0.474C0.2,-0.457 0.197,-0.439 0.197,-0.42L0.197,-0.28L0.477,-0.28ZM0.617,0L0.477,0L0.477,-0.14L0.197,-0.14L0.197,0L0.057,0L0.057,-0.42C0.057,-0.459 0.064,-0.495 0.079,-0.529C0.094,-0.563 0.114,-0.593 0.139,-0.618C0.164,-0.644 0.194,-0.664 0.228,-0.678C0.262,-0.693 0.298,-0.7 0.337,-0.7C0.376,-0.7 0.412,-0.693 0.446,-0.678C0.48,-0.664 0.51,-0.644 0.535,-0.618C0.561,-0.593 0.581,-0.563 0.595,-0.529C0.61,-0.495 0.617,-0.459 0.617,-0.42L0.617,0Z" style="fill-opacity:0.5;fill-rule:nonzero;"/>
        </g>
        <g transform="matrix(15.8126,0,0,15.8126,41.6237,117.57)">
            <path d="M0.716,0L0.583,0L0.583,-0.332C0.583,-0.341 0.581,-0.35 0.578,-0.358C0.574,-0.366 0.57,-0.373 0.563,-0.379C0.557,-0.386 0.55,-0.39 0.542,-0.394C0.534,-0.397 0.525,-0.399 0.516,-0.399C0.507,-0.399 0.498,-0.397 0.49,-0.394C0.483,-0.39 0.476,-0.386 0.469,-0.379C0.463,-0.373 0.459,-0.366 0.455,-0.358C0.452,-0.35 0.45,-0.341 0.45,-0.332L0.45,0L0.317,0L0.317,-0.332C0.317,-0.341 0.315,-0.35 0.312,-0.358C0.308,-0.366 0.304,-0.373 0.297,-0.379C0.291,-0.386 0.284,-0.39 0.276,-0.394C0.268,-0.397 0.259,-0.399 0.25,-0.399C0.241,-0.399 0.232,-0.397 0.224,-0.394C0.216,-0.39 0.209,-0.386 0.203,-0.379C0.197,-0.373 0.193,-0.366 0.189,-0.358C0.186,-0.35 0.184,-0.341 0.184,-0.332L0.184,0L0.051,0L0.051,-0.523L0.083,-0.523L0.119,-0.483C0.138,-0.499 0.158,-0.511 0.18,-0.519C0.203,-0.528 0.226,-0.532 0.25,-0.532C0.274,-0.532 0.298,-0.528 0.322,-0.519C0.345,-0.509 0.365,-0.494 0.383,-0.471C0.391,-0.482 0.4,-0.492 0.411,-0.5C0.421,-0.507 0.432,-0.514 0.444,-0.519C0.455,-0.523 0.467,-0.527 0.479,-0.529C0.492,-0.531 0.504,-0.532 0.516,-0.532C0.544,-0.532 0.57,-0.527 0.594,-0.517C0.618,-0.506 0.639,-0.492 0.657,-0.474C0.676,-0.456 0.69,-0.435 0.7,-0.41C0.711,-0.386 0.716,-0.36 0.716,-0.332L0.716,0Z" style="fill-opacity:0.5;fill-rule:nonzero;"/>
        </g>
        <g transform="matrix(15.8126,0,0,15.8126,53.6762,117.57)">
            <path d="M0.208,-0.665C0.208,-0.653 0.206,-0.641 0.201,-0.63C0.196,-0.62 0.19,-0.61 0.182,-0.602C0.174,-0.594 0.164,-0.588 0.153,-0.583C0.142,-0.579 0.131,-0.576 0.118,-0.576C0.106,-0.576 0.094,-0.579 0.083,-0.583C0.072,-0.588 0.063,-0.594 0.055,-0.602C0.047,-0.61 0.041,-0.62 0.036,-0.63C0.031,-0.641 0.029,-0.653 0.029,-0.665C0.029,-0.677 0.031,-0.689 0.036,-0.699C0.041,-0.71 0.047,-0.72 0.055,-0.728C0.063,-0.736 0.072,-0.742 0.083,-0.747C0.094,-0.752 0.106,-0.754 0.118,-0.754C0.131,-0.754 0.142,-0.752 0.153,-0.747C0.164,-0.742 0.174,-0.736 0.182,-0.728C0.19,-0.72 0.196,-0.71 0.201,-0.699C0.206,-0.689 0.208,-0.677 0.208,-0.665ZM0.185,0L0.051,0L0.051,-0.523L0.185,-0.523L0.185,0Z" style="fill-opacity:0.5;fill-rule:nonzero;"/>
        </g>
        <g transform="matrix(15.8126,0,0,15.8126,57.4055,117.57)">
            <path d="M0.423,-0.266C0.423,-0.284 0.419,-0.302 0.412,-0.319C0.405,-0.336 0.396,-0.351 0.384,-0.365C0.372,-0.378 0.358,-0.388 0.342,-0.396C0.325,-0.404 0.308,-0.408 0.29,-0.408C0.272,-0.408 0.255,-0.405 0.239,-0.399C0.222,-0.393 0.208,-0.384 0.197,-0.372C0.185,-0.36 0.175,-0.345 0.168,-0.327C0.162,-0.309 0.158,-0.289 0.158,-0.266C0.158,-0.244 0.162,-0.225 0.168,-0.207C0.175,-0.19 0.185,-0.175 0.197,-0.163C0.208,-0.15 0.222,-0.141 0.239,-0.134C0.255,-0.127 0.272,-0.124 0.29,-0.124C0.308,-0.124 0.325,-0.128 0.342,-0.136C0.358,-0.144 0.372,-0.155 0.384,-0.168C0.396,-0.181 0.405,-0.196 0.412,-0.213C0.419,-0.23 0.423,-0.248 0.423,-0.266ZM0.557,-0.066C0.557,-0.029 0.55,0.005 0.536,0.038C0.522,0.07 0.503,0.098 0.479,0.122C0.455,0.146 0.426,0.165 0.394,0.179C0.361,0.193 0.327,0.2 0.29,0.2L0.223,0.199L0.223,0.066L0.289,0.067C0.31,0.067 0.328,0.064 0.342,0.059C0.357,0.053 0.369,0.046 0.379,0.037C0.389,0.028 0.398,0.017 0.404,0.005C0.41,-0.007 0.414,-0.02 0.418,-0.033C0.413,-0.025 0.405,-0.018 0.396,-0.012C0.386,-0.007 0.375,-0.003 0.363,0.001C0.351,0.004 0.339,0.007 0.326,0.008C0.313,0.009 0.301,0.01 0.29,0.01C0.253,0.01 0.219,0.003 0.186,-0.009C0.154,-0.022 0.126,-0.04 0.101,-0.064C0.077,-0.087 0.058,-0.116 0.044,-0.15C0.03,-0.185 0.023,-0.223 0.023,-0.266C0.023,-0.306 0.03,-0.342 0.044,-0.376C0.058,-0.41 0.077,-0.439 0.101,-0.464C0.126,-0.489 0.154,-0.508 0.186,-0.522C0.219,-0.536 0.253,-0.543 0.29,-0.543C0.307,-0.543 0.324,-0.541 0.34,-0.537C0.357,-0.532 0.373,-0.527 0.389,-0.519C0.404,-0.512 0.419,-0.503 0.433,-0.493C0.448,-0.483 0.461,-0.472 0.473,-0.46L0.525,-0.522L0.557,-0.522L0.557,-0.066Z" style="fill-opacity:0.5;fill-rule:nonzero;"/>
        </g>
        <g transform="matrix(15.8126,0,0,15.8126,67.0181,117.57)">
            <path d="M0.556,-0.266C0.556,-0.227 0.549,-0.191 0.535,-0.157C0.521,-0.123 0.502,-0.094 0.478,-0.07C0.454,-0.045 0.426,-0.026 0.393,-0.011C0.361,0.003 0.326,0.01 0.289,0.01C0.252,0.01 0.218,0.003 0.185,-0.011C0.153,-0.026 0.125,-0.045 0.1,-0.07C0.076,-0.094 0.057,-0.123 0.043,-0.157C0.029,-0.191 0.022,-0.227 0.022,-0.266C0.022,-0.306 0.029,-0.343 0.043,-0.376C0.057,-0.41 0.076,-0.44 0.1,-0.464C0.125,-0.489 0.153,-0.508 0.185,-0.522C0.218,-0.536 0.252,-0.543 0.289,-0.543C0.326,-0.543 0.361,-0.536 0.393,-0.523C0.426,-0.51 0.454,-0.491 0.478,-0.467C0.502,-0.443 0.521,-0.414 0.535,-0.38C0.549,-0.346 0.556,-0.308 0.556,-0.266ZM0.422,-0.266C0.422,-0.288 0.418,-0.307 0.411,-0.324C0.404,-0.342 0.395,-0.357 0.383,-0.369C0.371,-0.382 0.357,-0.392 0.341,-0.398C0.324,-0.405 0.307,-0.408 0.289,-0.408C0.271,-0.408 0.254,-0.405 0.238,-0.398C0.221,-0.392 0.207,-0.382 0.196,-0.369C0.184,-0.357 0.174,-0.342 0.167,-0.324C0.161,-0.307 0.157,-0.288 0.157,-0.266C0.157,-0.246 0.161,-0.227 0.167,-0.21C0.174,-0.193 0.184,-0.178 0.196,-0.165C0.207,-0.152 0.221,-0.142 0.238,-0.135C0.254,-0.128 0.271,-0.124 0.289,-0.124C0.307,-0.124 0.324,-0.127 0.341,-0.134C0.357,-0.141 0.371,-0.151 0.383,-0.163C0.395,-0.175 0.404,-0.19 0.411,-0.208C0.418,-0.226 0.422,-0.245 0.422,-0.266Z" style="fill-opacity:0.5;fill-rule:nonzero;"/>
        </g>
    </g>
    <g id="Amigo" transform="matrix(18.0072,0,0,18.2133,-494.549,-1861.61)">
        <path d="M38.512,113.146L38.512,110.93C38.512,110.627 38.454,110.34 38.338,110.069C38.223,109.799 38.064,109.564 37.864,109.363C37.663,109.162 37.427,109.004 37.157,108.888C36.887,108.772 36.6,108.714 36.296,108.714C35.993,108.714 35.706,108.772 35.435,108.888C35.165,109.004 34.93,109.162 34.729,109.363C34.528,109.564 34.37,109.799 34.254,110.069C34.138,110.34 34.08,110.627 34.08,110.93L34.08,113.146L38.512,113.146ZM40.728,117.57L38.512,117.57L38.512,115.354L34.08,115.354L34.08,117.57L31.872,117.57L31.872,110.93C31.872,110.318 31.988,109.743 32.22,109.205C32.451,108.667 32.766,108.197 33.165,107.796C33.564,107.394 34.033,107.077 34.571,106.846C35.109,106.614 35.684,106.498 36.296,106.498C36.909,106.498 37.484,106.614 38.022,106.846C38.56,107.077 39.029,107.394 39.431,107.796C39.832,108.197 40.149,108.667 40.381,109.205C40.612,109.743 40.728,110.318 40.728,110.93L40.728,117.57Z" style="fill:url(#_Linear1);fill-rule:nonzero;"/>
        <path d="M52.943,117.57L50.843,117.57L50.843,112.32C50.843,112.176 50.816,112.04 50.762,111.911C50.708,111.782 50.632,111.669 50.534,111.571C50.436,111.473 50.323,111.397 50.194,111.343C50.065,111.289 49.929,111.262 49.785,111.262C49.641,111.262 49.506,111.289 49.379,111.343C49.253,111.397 49.143,111.473 49.047,111.571C48.952,111.669 48.878,111.782 48.824,111.911C48.77,112.04 48.743,112.176 48.743,112.32L48.743,117.57L46.635,117.57L46.635,112.32C46.635,112.176 46.608,112.04 46.554,111.911C46.5,111.782 46.424,111.669 46.326,111.571C46.228,111.473 46.115,111.397 45.986,111.343C45.857,111.289 45.721,111.262 45.577,111.262C45.433,111.262 45.298,111.289 45.172,111.343C45.045,111.397 44.935,111.473 44.84,111.571C44.744,111.669 44.67,111.782 44.616,111.911C44.562,112.04 44.535,112.176 44.535,112.32L44.535,117.57L42.427,117.57L42.427,109.301L42.936,109.301L43.508,109.934C43.801,109.687 44.124,109.495 44.477,109.359C44.829,109.223 45.196,109.154 45.577,109.154C45.963,109.154 46.34,109.226 46.708,109.371C47.076,109.515 47.399,109.764 47.677,110.12C47.806,109.945 47.952,109.795 48.117,109.672C48.282,109.548 48.456,109.448 48.638,109.371C48.821,109.293 49.01,109.238 49.206,109.205C49.401,109.171 49.594,109.154 49.785,109.154C50.222,109.154 50.633,109.237 51.016,109.401C51.4,109.566 51.734,109.791 52.02,110.077C52.306,110.363 52.531,110.699 52.696,111.085C52.86,111.471 52.943,111.883 52.943,112.32L52.943,117.57Z" style="fill:url(#_Linear2);fill-rule:nonzero;"/>
        <path d="M56.965,107.054C56.965,107.25 56.928,107.433 56.853,107.602C56.779,107.772 56.677,107.92 56.548,108.046C56.42,108.173 56.269,108.273 56.097,108.348C55.924,108.422 55.74,108.46 55.545,108.46C55.349,108.46 55.165,108.422 54.993,108.348C54.82,108.273 54.671,108.173 54.545,108.046C54.419,107.92 54.318,107.772 54.244,107.602C54.169,107.433 54.132,107.25 54.132,107.054C54.132,106.864 54.169,106.682 54.244,106.51C54.318,106.338 54.419,106.188 54.545,106.062C54.671,105.936 54.82,105.836 54.993,105.761C55.165,105.686 55.349,105.649 55.545,105.649C55.74,105.649 55.924,105.686 56.097,105.761C56.269,105.836 56.42,105.936 56.548,106.062C56.677,106.188 56.779,106.338 56.853,106.51C56.928,106.682 56.965,106.864 56.965,107.054ZM56.602,117.57L54.479,117.57L54.479,109.301L56.602,109.301L56.602,117.57Z" style="fill:url(#_Linear3);fill-rule:nonzero;"/>
        <path d="M64.092,113.362C64.092,113.074 64.037,112.795 63.926,112.525C63.815,112.254 63.665,112.015 63.474,111.807C63.284,111.598 63.061,111.431 62.806,111.305C62.552,111.179 62.28,111.116 61.992,111.116C61.703,111.116 61.432,111.164 61.177,111.262C60.922,111.36 60.701,111.504 60.513,111.695C60.325,111.885 60.177,112.121 60.069,112.401C59.961,112.682 59.907,113.002 59.907,113.362C59.907,113.707 59.961,114.017 60.069,114.293C60.177,114.568 60.325,114.804 60.513,114.999C60.701,115.195 60.922,115.345 61.177,115.451C61.432,115.556 61.703,115.609 61.992,115.609C62.28,115.609 62.552,115.546 62.806,115.42C63.061,115.294 63.284,115.127 63.474,114.918C63.665,114.71 63.815,114.47 63.926,114.2C64.037,113.93 64.092,113.651 64.092,113.362ZM66.215,116.528C66.215,117.11 66.104,117.655 65.883,118.165C65.662,118.674 65.359,119.12 64.976,119.501C64.592,119.881 64.145,120.183 63.632,120.404C63.12,120.625 62.573,120.736 61.992,120.736L60.934,120.72L60.934,118.613L61.976,118.628C62.306,118.628 62.586,118.586 62.818,118.501C63.05,118.416 63.245,118.3 63.405,118.153C63.564,118.007 63.692,117.838 63.787,117.648C63.882,117.457 63.958,117.256 64.015,117.045C63.932,117.179 63.814,117.288 63.659,117.373C63.505,117.458 63.334,117.528 63.146,117.582C62.958,117.636 62.763,117.673 62.559,117.694C62.356,117.714 62.167,117.725 61.992,117.725C61.41,117.725 60.863,117.624 60.351,117.424C59.839,117.223 59.391,116.936 59.008,116.563C58.624,116.19 58.322,115.733 58.1,115.192C57.879,114.652 57.768,114.042 57.768,113.362C57.768,112.74 57.879,112.16 58.1,111.625C58.322,111.09 58.624,110.627 59.008,110.235C59.391,109.844 59.839,109.538 60.351,109.317C60.863,109.095 61.41,108.985 61.992,108.985C62.259,108.985 62.524,109.018 62.787,109.085C63.05,109.152 63.304,109.244 63.551,109.363C63.798,109.481 64.034,109.62 64.258,109.78C64.482,109.939 64.692,110.112 64.887,110.297L65.706,109.317L66.215,109.317L66.215,116.528Z" style="fill:url(#_Linear4);fill-rule:nonzero;"/>
        <path d="M75.812,113.362C75.812,113.98 75.702,114.555 75.48,115.088C75.259,115.621 74.958,116.081 74.577,116.47C74.196,116.859 73.75,117.165 73.237,117.389C72.725,117.613 72.176,117.725 71.589,117.725C71.007,117.725 70.46,117.613 69.948,117.389C69.436,117.165 68.988,116.859 68.605,116.47C68.221,116.081 67.919,115.621 67.698,115.088C67.476,114.555 67.366,113.98 67.366,113.362C67.366,112.734 67.476,112.153 67.698,111.617C67.919,111.082 68.221,110.62 68.605,110.231C68.988,109.843 69.436,109.538 69.948,109.317C70.46,109.095 71.007,108.985 71.589,108.985C72.176,108.985 72.725,109.089 73.237,109.297C73.75,109.506 74.196,109.802 74.577,110.185C74.958,110.569 75.259,111.029 75.48,111.567C75.702,112.105 75.812,112.704 75.812,113.362ZM73.689,113.362C73.689,113.023 73.634,112.715 73.523,112.44C73.412,112.164 73.262,111.928 73.071,111.729C72.881,111.531 72.658,111.379 72.404,111.274C72.149,111.168 71.877,111.116 71.589,111.116C71.301,111.116 71.029,111.168 70.774,111.274C70.52,111.379 70.298,111.531 70.11,111.729C69.923,111.928 69.775,112.164 69.666,112.44C69.558,112.715 69.504,113.023 69.504,113.362C69.504,113.682 69.558,113.977 69.666,114.25C69.775,114.523 69.923,114.76 70.11,114.961C70.298,115.161 70.52,115.32 70.774,115.435C71.029,115.551 71.301,115.609 71.589,115.609C71.877,115.609 72.149,115.555 72.404,115.447C72.658,115.339 72.881,115.187 73.071,114.991C73.262,114.796 73.412,114.559 73.523,114.281C73.634,114.003 73.689,113.697 73.689,113.362Z" style="fill:url(#_Linear5);fill-rule:nonzero;"/>
    </g>
    <defs>
        <linearGradient id="_Linear1" x1="0" y1="0" x2="1" y2="0" gradientUnits="userSpaceOnUse" gradientTransform="matrix(43.9402,0,0,15.0868,31.8721,113.193)"><stop offset="0" style="stop-color:rgb(33,169,255);stop-opacity:1"/><stop offset="1" style="stop-color:rgb(250,62,190);stop-opacity:1"/></linearGradient>
        <linearGradient id="_Linear2" x1="0" y1="0" x2="1" y2="0" gradientUnits="userSpaceOnUse" gradientTransform="matrix(43.9402,0,0,15.0868,31.8721,113.193)"><stop offset="0" style="stop-color:rgb(33,169,255);stop-opacity:1"/><stop offset="1" style="stop-color:rgb(250,62,190);stop-opacity:1"/></linearGradient>
        <linearGradient id="_Linear3" x1="0" y1="0" x2="1" y2="0" gradientUnits="userSpaceOnUse" gradientTransform="matrix(43.9402,0,0,15.0868,31.8721,113.193)"><stop offset="0" style="stop-color:rgb(33,169,255);stop-opacity:1"/><stop offset="1" style="stop-color:rgb(250,62,190);stop-opacity:1"/></linearGradient>
        <linearGradient id="_Linear4" x1="0" y1="0" x2="1" y2="0" gradientUnits="userSpaceOnUse" gradientTransform="matrix(43.9402,0,0,15.0868,31.8721,113.193)"><stop offset="0" style="stop-color:rgb(33,169,255);stop-opacity:1"/><stop offset="1" style="stop-color:rgb(250,62,190);stop-opacity:1"/></linearGradient>
        <linearGradient id="_Linear5" x1="0" y1="0" x2="1" y2="0" gradientUnits="userSpaceOnUse" gradientTransform="matrix(43.9402,0,0,15.0868,31.8721,113.193)"><stop offset="0" style="stop-color:rgb(33,169,255);stop-opacity:1"/><stop offset="1" style="stop-color:rgb(250,62,190);stop-opacity:1"/></linearGradient>
    </defs>
</svg>
